<svg width="32" height="32" viewBox="0 0 32 32" fill="none" xmlns="http://www.w3.org/2000/svg">

<path fill-rule="evenodd" clip-rule="evenodd" d="M13.3904 13.4012C13.1704 13.6212 12.8851 13.7399 12.5691 13.7399C12.2731 13.7399 11.9824 13.6186 11.7491 13.3999C11.5277 13.1799 11.4024 12.8786 11.4024 12.5732C11.4024 12.2826 11.5251 11.9839 11.7411 11.7532C11.8597 11.6332 12.0011 11.5426 12.1424 11.4946C12.5451 11.3106 13.0797 11.4186 13.3971 11.7519C13.5104 11.8652 13.5971 11.9892 13.6544 12.1186C13.7171 12.2572 13.7491 12.4146 13.7491 12.5732C13.7491 12.8906 13.6224 13.1852 13.3904 13.4012ZM20.254 11.7464C19.7993 11.2931 19.0593 11.2931 18.6047 11.7464L11.7513 18.5998C11.2967 19.0544 11.2967 19.7944 11.7513 20.2504C11.9727 20.4704 12.2647 20.5918 12.5767 20.5918C12.8887 20.5918 13.1807 20.4704 13.4007 20.2504L20.254 13.3971C20.7087 12.9411 20.7087 12.2024 20.254 11.7464ZM19.8744 18.3519C19.4424 18.1706 18.9304 18.2692 18.5891 18.6106C18.5184 18.6932 18.4184 18.8212 18.3504 18.9719C18.2784 19.1346 18.2691 19.3092 18.2691 19.4266C18.2691 19.5439 18.2784 19.7172 18.3504 19.8799C18.4171 20.0292 18.4971 20.1506 18.6024 20.2559C18.8437 20.4799 19.1237 20.5932 19.4357 20.5932C19.7317 20.5932 20.0224 20.4732 20.2611 20.2506C20.4731 20.0386 20.5891 19.7452 20.5891 19.4266C20.5891 19.1066 20.4731 18.8146 20.2597 18.6012C20.1424 18.4852 20.0011 18.3946 19.8744 18.3519Z" fill="#00C389"/>
</svg>
